<?xml version="1.0" encoding="utf-8"?>
<!-- Generator: Adobe Illustrator 16.0.0, SVG Export Plug-In . SVG Version: 6.00 Build 0)  -->
<!DOCTYPE svg PUBLIC "-//W3C//DTD SVG 1.1//EN" "http://www.w3.org/Graphics/SVG/1.1/DTD/svg11.dtd">
<svg version="1.1" id="Layer_1" xmlns="http://www.w3.org/2000/svg" xmlns:xlink="http://www.w3.org/1999/xlink" x="0px" y="0px"
	 width="155px" height="180px" viewBox="0 0 155 180" enable-background="new 0 0 155 180" xml:space="preserve">
<g>
	<g>
		<polygon fill="#FDCA2E" points="22.53,0.582 131.073,0.582 131.073,79.098 122.586,70.514 22.53,70.514 		"/>
		<g enable-background="new    ">
			<path fill="#000100" d="M40.526,44.984V25.032h3.705v7.582h7.981v-7.582h3.705v19.952h-3.705v-8.95h-7.981v8.95H40.526z"/>
			<path fill="#000100" d="M72.963,38.941h-9.891c0.085,1.739,1.339,3.25,3.392,3.25c1.454,0,2.622-0.741,3.477-2.224l2.851,1.055
				c-1.226,2.793-3.392,4.19-6.527,4.19c-4.931,0-6.898-3.991-6.898-7.411c0-3.421,1.967-7.411,6.898-7.411
				c2.28,0,4.133,0.94,5.159,2.395c1.026,1.396,1.539,3.078,1.539,4.703V38.941z M63.158,36.148h6.185
				c-0.399-1.824-1.425-2.736-3.078-2.736C64.583,33.412,63.415,34.638,63.158,36.148z"/>
			<path fill="#000100" d="M76.099,24.804h3.534v20.181h-3.534V24.804z"/>
			<path fill="#000100" d="M83.082,24.804h3.535v20.181h-3.535V24.804z"/>
			<path fill="#000100" d="M89.895,37.802c0-2.138,0.656-3.905,1.967-5.302c1.312-1.396,3.079-2.109,5.33-2.109
				c2.252,0,4.02,0.713,5.33,2.109c1.312,1.396,1.967,3.164,1.967,5.302s-0.655,3.934-1.967,5.33
				c-1.311,1.396-3.078,2.081-5.33,2.081c-2.251,0-4.019-0.685-5.33-2.081C90.551,41.735,89.895,39.939,89.895,37.802z
				 M93.601,37.802c0,1.226,0.313,2.28,0.97,3.135c0.654,0.827,1.51,1.255,2.621,1.255c1.112,0,1.967-0.428,2.623-1.255
				c0.655-0.854,0.969-1.909,0.969-3.135s-0.313-2.28-0.969-3.107c-0.656-0.854-1.511-1.282-2.623-1.282
				c-1.111,0-1.967,0.428-2.621,1.282C93.914,35.521,93.601,36.576,93.601,37.802z"/>
			<path fill="#000100" d="M110.931,40.424c1.282,0,2.366,1.055,2.366,2.395c0,1.282-1.027,2.337-2.366,2.337
				c-1.34,0-2.366-1.055-2.366-2.337C108.564,41.479,109.648,40.424,110.931,40.424z M108.594,25.032h4.674l-0.798,13.055h-3.079
				L108.594,25.032z"/>
		</g>
	</g>
	<g>
		<g>
			<g>
				<path d="M120.495,145.473v-10.728l0,0l0,0c0-24.569-19.919-44.491-44.492-44.491l0,0H48.196l0,0
					c-24.574,0-44.494,19.922-44.494,44.491l0,0v44.495h16.685v-5.562h5.562v5.562h16.686l0,0v-5.562h5.562h33.368v5.562H98.25
					v-5.562h5.562v5.562h16.684v-20.938 M111.777,125.203c1.096,0,1.988,0.891,1.988,1.988c0,1.104-0.894,1.994-1.988,1.994
					c-1.104,0-1.995-0.892-1.995-1.994C109.782,126.094,110.674,125.203,111.777,125.203z M105.802,125.203
					c1.101,0,1.991,0.891,1.991,1.988c0,1.104-0.891,1.994-1.991,1.994c-1.103,0-1.989-0.892-1.989-1.994
					C103.812,126.094,104.699,125.203,105.802,125.203z M81.564,101.377v16.686c0,9.213-7.471,16.684-16.687,16.684
					c-9.215,0-16.683-7.471-16.683-16.684c0-9.215,7.468-16.686,16.683-16.686H81.564z"/>
			</g>
			<path fill="#FFFFFF" d="M64.879,101.377c-9.215,0-16.683,7.471-16.683,16.686c0,9.213,7.468,16.684,16.683,16.684
				c9.216,0,16.686-7.471,16.686-16.684v-16.686H64.879z"/>
			<path fill="#FFFFFF" d="M111.777,129.186c1.096,0,1.988-0.891,1.988-1.992c0-1.1-0.894-1.989-1.988-1.989
				c-1.104,0-1.995,0.892-1.995,1.989C109.782,128.295,110.674,129.186,111.777,129.186z"/>
			<path fill="#FFFFFF" d="M105.802,129.186c1.101,0,1.991-0.891,1.991-1.992c0-1.1-0.891-1.989-1.991-1.989
				c-1.103,0-1.989,0.892-1.989,1.989C103.812,128.295,104.699,129.186,105.802,129.186z"/>
		</g>
		<g>
			<path d="M120.495,167.132c1.823,0.483,3.729,0.767,5.706,0.767c12.297,0,22.299-10.002,22.299-22.299v-4.67h-16.598v4.67
				c0,3.146-2.555,5.703-5.701,5.703s-5.706-2.559-5.706-5.703"/>
		</g>
	</g>
</g>
</svg>
